<svg id="Capa_1" data-name="Capa 1" xmlns="http://www.w3.org/2000/svg" viewBox="0 0 150 150"><defs><style>.cls-1{fill:#46509e;}.cls-2{fill:#fff;}</style></defs><path class="cls-1" d="M30.33,14.42h89.31a29,29,0,0,1,18.85,18.86v89.3c-.49,1-1.05,2-1.44,3-3.63,9.47-11.88,15.64-22,15.69-26.77.14-53.54.19-80.32,0a23.1,23.1,0,0,1-23.09-23.1c-.22-26.77-.17-53.55,0-80.32.06-10.1,6.23-18.35,15.7-22C28.36,15.47,29.33,14.91,30.33,14.42ZM74.48,131.65c12.89,0,25.79,0,38.68,0,9.79,0,15.51-5.63,15.53-15.27q.08-38.43,0-76.86c0-9.47-5.68-15.26-15-15.28q-38.67-.09-77.35,0c-9.35,0-15,5.8-15,15.26q-.08,38.43,0,76.86c0,9.65,5.74,15.25,15.51,15.29C49.36,131.69,61.92,131.65,74.48,131.65Z"/><path class="cls-1" d="M25.16,20.85H119.4s14.17,7.36,14.17,17.56,13.4,95-13.79,97.07-81.21,7.74-89.52,1.89S14.4,123,15.53,115.65,8.73,27.27,25.16,20.85Z"/><path class="cls-2" d="M62.37,118.69a5.62,5.62,0,0,1-.58,0,8,8,0,0,1-6.32-3.93L34.88,79.61a8,8,0,1,1,13.81-8.09L63.4,96.62,113.35,34.3a8,8,0,1,1,12.48,10L68.61,115.7A8,8,0,0,1,62.37,118.69Z"/></svg>