<?xml version="1.0" encoding="utf-8"?>
<!-- Generator: Adobe Illustrator 26.0.0, SVG Export Plug-In . SVG Version: 6.00 Build 0)  -->
<svg version="1.1" id="Capa_1" xmlns="http://www.w3.org/2000/svg" xmlns:xlink="http://www.w3.org/1999/xlink" x="0px" y="0px"
	 viewBox="0 0 150 150" style="enable-background:new 0 0 150 150;" xml:space="preserve">
<style type="text/css">
	.st0{fill:#606060;}
</style>
<path class="st0" d="M30.3,14.4h89.3c9,2.9,16,9.9,18.9,18.9v89.3c-0.5,1-1.1,2-1.4,3c-3.6,9.5-11.9,15.6-22,15.7
	c-26.8,0.1-53.5,0.2-80.3,0c-12.8,0-23.1-10.3-23.1-23.1c-0.2-26.8-0.2-53.5,0-80.3c0.1-10.1,6.2-18.4,15.7-22
	C28.4,15.5,29.3,14.9,30.3,14.4z M74.5,131.6c12.9,0,25.8,0,38.7,0c9.8,0,15.5-5.6,15.5-15.3c0.1-25.6,0.1-51.2,0-76.9
	c0-9.5-5.7-15.3-15-15.3c-25.8-0.1-51.6-0.1-77.3,0c-9.4,0-15,5.8-15,15.3c-0.1,25.6-0.1,51.2,0,76.9c0,9.7,5.7,15.2,15.5,15.3
	C49.4,131.7,61.9,131.6,74.5,131.6z"/>
</svg>
